<?xml version="1.0" encoding="iso-8859-1"?>
<!-- Generator: Adobe Illustrator 19.0.0, SVG Export Plug-In . SVG Version: 6.00 Build 0)  -->
<svg version="1.1" id="Layer_1" xmlns="http://www.w3.org/2000/svg" xmlns:xlink="http://www.w3.org/1999/xlink" x="0px" y="0px"
	 viewBox="0 0 512 512" style="enable-background:new 0 0 512 512;" xml:space="preserve">
<circle style="fill:#79C9DB;" cx="256" cy="256" r="256"/>
<path style="fill:#99DBFF;" d="M256,512C114.615,512,0,397.385,0,256S114.615,0,256,0V512z"/>
<path style="fill:#39536F;" d="M495.708,346.065C459.263,443.015,365.687,512,256,512c-109.684,0-203.258-68.98-239.705-165.927
	L495.708,346.065z"/>
<path style="fill:#4D5CAE;" d="M256,346.065V512c-109.684,0-203.258-68.98-239.705-165.927L256,346.065z"/>
<path style="fill:#D29500;" d="M353.897,418.74l-37.661-301.169c-0.998-7.972-8.259-13.626-16.239-12.628l-133.745,16.724
	c-7.971,0.998-13.625,8.268-12.628,16.239l37.66,301.169c0.921,7.359,7.185,12.742,14.415,12.742c0.602,0,1.212-0.036,1.823-0.113
	c7.971-0.998,13.625-8.268,12.628-16.239l104.88-13.114l0,0c0.998,7.972,8.26,13.625,16.239,12.628
	C349.239,433.981,354.893,426.711,353.897,418.74z"/>
<path style="fill:#FEAB00;" d="M256,110.444l-89.748,11.223c-7.971,0.998-13.625,8.268-12.628,16.239l37.66,301.169
	c0.921,7.359,7.185,12.742,14.415,12.742c0.602,0,1.212-0.036,1.823-0.113c7.971-0.998,13.625-8.268,12.628-16.239L256,430.98
	V110.444z"/>
<path style="fill:#D29500;" d="M295.063,117.775l-5.475-43.78c-0.998-7.971-8.263-13.629-16.239-12.628L181.348,72.87
	c-3.828,0.479-7.309,2.458-9.677,5.504s-3.43,6.906-2.951,10.735l5.475,43.78c0.921,7.359,7.185,12.742,14.415,12.742
	c0.602,0,1.212-0.036,1.823-0.113l92.003-11.504c3.827-0.479,7.308-2.458,9.676-5.504
	C294.48,125.463,295.543,121.603,295.063,117.775z"/>
<path style="fill:#FEAB00;" d="M256,63.535l-74.652,9.335c-3.828,0.479-7.309,2.458-9.677,5.504
	c-2.368,3.046-3.43,6.906-2.951,10.735l5.475,43.78c0.921,7.359,7.185,12.742,14.415,12.742c0.602,0,1.212-0.036,1.823-0.113
	L256,137.318V63.535z"/>
<path style="fill:#9F4F45;" d="M176.697,102.656c-7.229,0-13.494-5.383-14.415-12.742c-0.996-7.971,4.657-15.241,12.628-16.239
	l104.88-13.116c7.981-0.999,15.242,4.656,16.239,12.628c0.998,7.971-4.657,15.241-12.628,16.239l-104.881,13.116
	C177.907,102.618,177.299,102.656,176.697,102.656z"/>
<path style="fill:#C55C51;" d="M176.697,102.656c-7.229,0-13.494-5.383-14.415-12.742c-0.996-7.971,4.657-15.241,12.628-16.239
	L256,63.535v29.318l-77.481,9.689C177.907,102.618,177.299,102.656,176.697,102.656z"/>
<path style="fill:#9F4F45;" d="M316.236,117.571c-0.998-7.972-8.259-13.626-16.239-12.628l-133.745,16.724
	c-7.971,0.998-13.625,8.268-12.628,16.239l7.583,60.637l162.612-20.335L316.236,117.571z"/>
<path style="fill:#C55C51;" d="M256,110.444l-89.748,11.223c-7.971,0.998-13.625,8.268-12.628,16.239l7.583,60.637L256,186.666
	V110.444z"/>
<g>
	<path style="fill:#6B3E35;" d="M295.501,166.908c-0.998-7.971-8.273-13.623-16.239-12.628c-7.971,0.998-13.625,8.268-12.628,16.239
		l1.827,14.611l28.867-3.61L295.501,166.908z"/>
	<path style="fill:#6B3E35;" d="M262.303,236.026c-0.528-4.22-2.815-7.789-6.031-10.068c-2.861-2.026-6.457-3.03-10.208-2.56
		c-7.971,0.998-13.625,8.268-12.628,16.239l1.827,14.611l28.865-3.61L262.303,236.026z"/>
</g>
<path style="fill:#924045;" d="M256.004,225.773c-2.816-1.901-6.305-2.831-9.939-2.375c-7.971,0.998-13.625,8.268-12.628,16.239
	l1.827,14.611L256,251.654C256,251.654,256.095,225.834,256.004,225.773z"/>
<path style="fill:#6B3E35;" d="M303.5,230.874c-0.998-7.971-8.275-13.622-16.239-12.628c-7.971,0.998-13.625,8.268-12.628,16.239
	l1.827,14.609l28.867-3.61L303.5,230.874z"/>
<rect x="172.577" y="252.087" transform="matrix(-0.9923 0.1241 -0.1241 -0.9923 542.3587 534.8585)" style="fill:#9F4F45;" width="163.889" height="64.467"/>
<polygon style="fill:#C55C51;" points="256,251.654 169.204,262.508 177.203,326.473 256,316.62 "/>
<g>
	<path style="fill:#6B3E35;" d="M311.498,294.841c-0.998-7.971-8.276-13.629-16.239-12.628c-7.971,0.998-13.625,8.268-12.628,16.239
		l1.827,14.609l28.867-3.609L311.498,294.841z"/>
	<path style="fill:#6B3E35;" d="M278.3,363.958c-0.998-7.971-8.276-13.625-16.239-12.628c-7.971,0.998-13.625,8.268-12.628,16.239
		l1.827,14.611l28.867-3.61L278.3,363.958z"/>
</g>
<path style="fill:#924045;" d="M256,353.523c-4.557,2.934-7.284,8.307-6.567,14.045l1.827,14.611l4.74-0.505V353.523z"/>
<path style="fill:#6B3E35;" d="M319.497,358.806c-0.998-7.971-8.278-13.626-16.239-12.628c-7.971,0.998-13.625,8.268-12.628,16.239
	l1.827,14.609l28.867-3.609L319.497,358.806z"/>
<path style="fill:#9F4F45;" d="M347.815,370.105l-162.612,20.333l6.081,48.634c0.921,7.359,7.185,12.742,14.415,12.742
	c0.602,0,1.212-0.036,1.823-0.113c7.971-0.998,13.625-8.268,12.628-16.239l104.88-13.114l0,0c0.998,7.972,8.26,13.625,16.239,12.628
	c7.969-0.998,13.625-8.268,12.628-16.239L347.815,370.105z"/>
<path style="fill:#C55C51;" d="M256.001,381.674l-70.8,8.765l6.081,48.634c0.921,7.359,7.185,12.742,14.415,12.742
	c0.602,0,1.212-0.036,1.823-0.113c7.971-0.998,13.625-8.268,12.628-16.239L256,430.98L256.001,381.674z"/>
<path style="fill:#D29500;" d="M375.094,411.587c-3.044-2.368-6.9-3.431-10.735-2.951l-185.705,23.222
	c-7.971,0.998-13.625,8.268-12.628,16.239l6.239,49.889C198.502,507.065,226.673,512,256,512c48.048,0,92.995-13.247,131.408-36.273
	l-6.81-54.463C380.119,417.436,378.14,413.955,375.094,411.587z"/>
<path style="fill:#FEAB00;" d="M256,422.185l-77.295,9.671c-7.971,0.998-13.625,8.268-12.628,16.239l6.239,49.889
	c26.223,9.073,54.377,14.009,83.684,14.015V422.185z"/>
<g>
	<path style="fill:#924045;" d="M196.867,164.583c-7.971,0.998-13.625,8.268-12.628,16.239l1.827,14.611l28.867-3.61l-1.827-14.612
		C212.109,169.239,204.841,163.585,196.867,164.583z"/>
	<path style="fill:#924045;" d="M238.065,159.431c-7.971,0.998-13.625,8.268-12.628,16.239l1.913,14.601l28.823-3.604l-1.871-14.605
		C253.306,164.089,246.035,158.426,238.065,159.431z"/>
	<path style="fill:#924045;" d="M221.105,241.178c-0.998-7.971-8.268-13.629-16.239-12.628c-7.971,0.998-13.625,8.268-12.628,16.239
		l1.827,14.611l28.867-3.61L221.105,241.178z"/>
	<path style="fill:#924045;" d="M212.865,292.515c-7.971,0.998-13.625,8.268-12.628,16.239l1.827,14.611l28.867-3.61l-1.827-14.611
		C228.106,297.174,220.833,291.514,212.865,292.515z"/>
	<path style="fill:#924045;" d="M237.103,369.11c-0.998-7.971-8.272-13.633-16.239-12.628c-7.971,0.998-13.625,8.268-12.628,16.239
		l1.827,14.611l28.867-3.61L237.103,369.11z"/>
</g>
<path style="fill:#6B3E35;" d="M254.063,287.364c-7.971,0.998-13.625,8.268-12.628,16.239l1.827,14.611l12.737-1.593l16.129-2.017
	l-1.827-14.611c-0.916-7.319-7.119-12.687-14.301-12.742C255.361,287.245,254.714,287.281,254.063,287.364z"/>
<g>
	<path style="fill:#924045;" d="M254.063,287.364c-7.971,0.998-13.625,8.268-12.628,16.239l1.827,14.611l12.737-1.593L256,287.249
		C255.361,287.245,254.714,287.281,254.063,287.364z"/>
	<path style="fill:#924045;" d="M231.143,480.631c-7.971,0.996-13.625,8.266-12.628,16.239l1.577,12.618
		c9.711,1.364,19.593,2.188,29.622,2.431l-2.333-18.657C246.385,485.289,239.123,479.629,231.143,480.631z"/>
</g>
<g>
	<path style="fill:#6B3E35;" d="M293.546,487.487c-0.998-7.971-8.263-13.625-16.239-12.628c-7.969,0.998-13.625,8.268-12.628,16.239
		l2.487,19.889c0.032,0.25,0.084,0.493,0.128,0.74c9.769-0.425,19.392-1.404,28.847-2.895c-0.012-0.481-0.047-0.967-0.108-1.455
		L293.546,487.487z"/>
	<path style="fill:#6B3E35;" d="M339.711,481.715c-0.998-7.971-8.263-13.623-16.239-12.628c-7.969,0.998-13.625,8.268-12.628,16.239
		l2.487,19.889c0.013,0.099,0.036,0.192,0.049,0.289c9.641-2.209,19.088-4.931,28.279-8.196L339.711,481.715z"/>
</g>
<g>
</g>
<g>
</g>
<g>
</g>
<g>
</g>
<g>
</g>
<g>
</g>
<g>
</g>
<g>
</g>
<g>
</g>
<g>
</g>
<g>
</g>
<g>
</g>
<g>
</g>
<g>
</g>
<g>
</g>
</svg>
