<?xml version="1.0" encoding="iso-8859-1"?>
<!-- Generator: Adobe Illustrator 19.0.0, SVG Export Plug-In . SVG Version: 6.00 Build 0)  -->
<svg version="1.1" id="Layer_1" xmlns="http://www.w3.org/2000/svg" xmlns:xlink="http://www.w3.org/1999/xlink" x="0px" y="0px"
	 viewBox="0 0 512 512" style="enable-background:new 0 0 512 512;" xml:space="preserve">
<path style="fill:#ECD5BB;" d="M456.348,489.739H77.913c-24.588,0-44.522-19.934-44.522-44.522V66.783
	c0-24.588,19.933-44.522,44.522-44.522h378.435c24.588,0,44.522,19.933,44.522,44.522v378.435
	C500.87,469.806,480.936,489.739,456.348,489.739z"/>
<path style="fill:#FFF1B6;" d="M189.217,94.609c0,52.251-42.358,94.609-94.609,94.609S0,146.859,0,94.609S42.358,0,94.609,0
	S189.217,42.358,189.217,94.609z"/>
<path style="fill:#FF8950;" d="M144.696,94.609c0,27.662-22.424,50.087-50.087,50.087s-50.087-22.424-50.087-50.087
	s22.424-50.087,50.087-50.087S144.696,66.946,144.696,94.609z"/>
<path style="fill:#DE9892;" d="M278.261,436.11L278.261,436.11c0,41.913-33.977,75.89-75.89,75.89H75.89
	C33.977,512,0,478.023,0,436.11l0,0c0-22.61,9.899-42.899,25.588-56.802c-0.178-2.125-0.292-4.267-0.292-6.439l0,0
	c0-41.913,33.977-75.89,75.89-75.89h75.89c41.913,0,75.89,33.977,75.89,75.89l0,0c0,2.17-0.112,4.314-0.292,6.439
	C268.361,393.212,278.261,413.5,278.261,436.11z"/>
<path style="fill:#EDACA9;" d="M91.067,512H75.89C33.977,512,0,478.023,0,436.11l0,0c0-22.61,9.899-42.899,25.588-56.802
	c-0.178-2.125-0.292-4.267-0.292-6.439l0,0c0-35.812,24.814-65.811,58.182-73.79c33.368,7.979,58.182,37.978,58.182,73.79l0,0
	c0,2.17-0.112,4.314-0.292,6.439c15.688,13.903,25.588,34.192,25.588,56.802l0,0C166.957,478.023,132.98,512,91.067,512z"/>
<path style="fill:#606D11;" d="M486.22,129.77l-18.741,56.223H133.565l-18.741-56.223c-1.45-4.351,2.689-8.489,7.04-7.04l0,0
	c37.239,12.413,76.235,18.741,115.488,18.741h126.34c39.253,0,78.249-6.329,115.488-18.741l0,0
	C483.531,121.279,487.67,125.419,486.22,129.77z"/>
<path style="fill:#A03D07;" d="M166.957,200.348h44.522v289.391h-44.522V200.348z M389.565,200.348v289.391h44.522V200.348H389.565z
	"/>
<path style="fill:#FF7039;" d="M112.942,175.143c-0.779-3.895,2.655-7.327,6.549-6.549l0,0c31.567,6.313,63.681,9.493,95.872,9.493
	h170.318c32.193,0,64.305-3.18,95.872-9.493l0,0c3.895-0.779,7.327,2.655,6.549,6.549l-8.598,42.992
	c-0.521,2.601-2.805,4.474-5.457,4.474H126.997c-2.653,0-4.937-1.872-5.457-4.474L112.942,175.143z M495.304,467.478H105.739
	c-3.073,0-5.565,2.492-5.565,5.565V512H500.87v-38.957C500.87,469.97,498.377,467.478,495.304,467.478z M136.974,320.631h327.095
	c26.471,0,47.931-21.459,47.931-47.931c0-3.799-3.722-6.481-7.325-5.28l-25.209,8.403c-0.568,0.189-1.162,0.286-1.76,0.286H123.339
	c-0.598,0-1.192-0.097-1.76-0.286L96.37,267.42c-3.604-1.201-7.325,1.481-7.325,5.28
	C89.043,299.172,110.503,320.631,136.974,320.631z"/>
<path style="fill:#606D11;" d="M512,503.652c0,4.61-3.738,8.348-8.348,8.348H8.348C3.738,512,0,508.262,0,503.652
	s3.738-8.348,8.348-8.348h495.304C508.262,495.304,512,499.042,512,503.652z"/>
<path style="fill:#DE9892;" d="M46.983,239.758l-10.496,3.704c-0.918,0.325-1.857,0.479-2.778,0.479
	c-3.44,0-6.662-2.143-7.871-5.572c-1.535-4.348,0.746-9.116,5.093-10.65l10.496-3.704c4.346-1.534,9.116,0.746,10.65,5.093
	C53.611,233.456,51.33,238.225,46.983,239.758z M63.37,422.511l-10.496,3.704c-4.348,1.534-6.628,6.303-5.093,10.65
	c1.21,3.429,4.431,5.572,7.871,5.572c0.922,0,1.86-0.154,2.778-0.479l10.496-3.704c4.348-1.534,6.628-6.303,5.093-10.65
	C72.486,423.257,67.716,420.976,63.37,422.511z M291.535,70.042l-10.496-3.704c-4.349-1.535-9.116,0.745-10.65,5.093
	c-1.535,4.348,0.746,9.116,5.093,10.65l10.496,3.704c0.919,0.325,1.855,0.479,2.778,0.479c3.44,0,6.662-2.143,7.871-5.572
	C298.163,76.344,295.883,71.575,291.535,70.042z M425.1,17.17l-10.496-3.704c-4.346-1.535-9.116,0.746-10.65,5.093
	c-1.535,4.348,0.746,9.116,5.093,10.65l10.496,3.704c0.919,0.325,1.855,0.479,2.778,0.479c3.44,0,6.662-2.143,7.871-5.572
	C431.728,23.472,429.448,18.704,425.1,17.17z M102.952,359.433l-10.496-3.704c-4.348-1.534-9.116,0.745-10.65,5.093
	c-1.535,4.348,0.746,9.116,5.093,10.65l10.496,3.704c0.919,0.325,1.855,0.479,2.778,0.479c3.44,0,6.662-2.143,7.871-5.572
	C109.58,365.735,107.3,360.967,102.952,359.433z M506.428,385.398l-10.496-3.704c-4.349-1.535-9.116,0.746-10.65,5.093
	c-1.535,4.348,0.746,9.116,5.093,10.65l10.496,3.704c0.919,0.325,1.855,0.479,2.778,0.479c3.44,0,6.662-2.143,7.871-5.572
	C513.056,391.701,510.776,386.932,506.428,385.398z M493.154,75.133c0.922,0,1.86-0.154,2.778-0.479l10.496-3.704
	c4.348-1.534,6.628-6.303,5.093-10.65c-1.534-4.348-6.303-6.628-10.65-5.093l-10.496,3.704c-4.348,1.534-6.628,6.303-5.093,10.65
	C486.492,72.99,489.715,75.133,493.154,75.133z M332.074,357.989c-2.611-3.799-7.808-4.763-11.608-2.149
	c-3.799,2.611-4.762,7.809-2.149,11.608l6.305,9.171c1.618,2.354,4.23,3.618,6.886,3.618c1.629,0,3.277-0.476,4.722-1.469
	c3.799-2.611,4.762-7.809,2.149-11.608L332.074,357.989z"/>
<g>
</g>
<g>
</g>
<g>
</g>
<g>
</g>
<g>
</g>
<g>
</g>
<g>
</g>
<g>
</g>
<g>
</g>
<g>
</g>
<g>
</g>
<g>
</g>
<g>
</g>
<g>
</g>
<g>
</g>
</svg>
